<?xml version="1.0" encoding="utf-8"?>
<!-- Generator: Adobe Illustrator 23.0.6, SVG Export Plug-In . SVG Version: 6.00 Build 0)  -->
<svg version="1.1" id="Layer_1" xmlns="http://www.w3.org/2000/svg" xmlns:xlink="http://www.w3.org/1999/xlink" x="0px" y="0px"
	 viewBox="0 0 633.66 328.17" style="enable-background:new 0 0 633.66 328.17;" xml:space="preserve">
<style type="text/css">
	.st0{fill:#FFFFFF;}
	.st1{clip-path:url(#SVGID_2_);fill:url(#SVGID_3_);}
	.st2{clip-path:url(#SVGID_5_);fill:url(#SVGID_6_);}
	.st3{fill:#8DC63F;}
</style>
<g>
	<polygon class="st0" points="53.26,236.87 47.99,200.22 16.84,200.22 0,276.62 23.14,276.62 33.22,230.69 40.2,276.62 
		50.51,276.62 77.66,230.69 67.58,276.62 90.72,276.62 107.55,200.22 74.79,200.22 	"/>
	<path class="st0" d="M172.85,198.96c-26.57,0-45.93,19.59-45.93,43.98c0,20.73,17.18,35.05,39.86,35.05
		c26.58,0,45.82-19.82,45.82-44.21C212.6,213.16,195.42,198.96,172.85,198.96z M168.04,257.61c-10.31,0-17.18-6.87-17.18-16.26
		c0-11.68,8.48-21.99,20.62-21.99c10.31,0,17.18,6.87,17.18,16.26C188.66,247.3,180.18,257.61,168.04,257.61z"/>
	<polygon class="st0" points="291.06,237.33 272.74,200.22 248.91,200.22 232.08,276.62 255.21,276.62 263.92,236.99 283.39,276.62 
		305.61,276.62 322.45,200.22 299.31,200.22 	"/>
	<polygon class="st0" points="344.77,276.62 402.73,276.62 407.2,256.46 372.38,256.46 374.21,248.1 408.23,248.1 412.69,227.94 
		378.68,227.94 380.28,220.38 415.1,220.38 419.57,200.22 361.61,200.22 	"/>
	<polygon class="st0" points="479.37,251.65 474.21,200.22 449.13,200.22 460.46,276.62 489.56,276.62 534.57,200.22 507.2,200.22 	
		"/>
	<path class="st0" d="M593.91,198.96c-26.57,0-45.93,19.59-45.93,43.98c0,20.73,17.18,35.05,39.86,35.05
		c26.57,0,45.82-19.82,45.82-44.21C633.66,213.16,616.48,198.96,593.91,198.96z M589.1,257.61c-10.31,0-17.18-6.87-17.18-16.26
		c0-11.68,8.48-21.99,20.62-21.99c10.31,0,17.18,6.87,17.18,16.26C609.72,247.3,601.24,257.61,589.1,257.61z"/>
</g>
<g>
	<defs>
		<path id="SVGID_1_" d="M440.23,110.18c1.67-1.39,2.71-3.43,2.85-5.59L446,61.53l55.45,76.32l-94.35,0.03L440.23,110.18z
			 M437.3,31.3c-3.22,0.93-5.54,3.8-5.77,7.15l-4.18,61.66l-47.43,39.64c-2.52,2.11-3.49,5.49-2.48,8.61l0.09,0.25
			c1.14,3.15,4.17,5.27,7.52,5.28l132.11-0.03c3.02-0.01,5.75-1.68,7.13-4.38c1.35-2.67,1.09-5.94-0.66-8.33L445.99,34.29
			c-1.53-2.11-3.97-3.3-6.49-3.3C438.76,30.98,438.02,31.09,437.3,31.3"/>
	</defs>
	<clipPath id="SVGID_2_">
		<use xlink:href="#SVGID_1_"  style="overflow:visible;"/>
	</clipPath>
	
		<linearGradient id="SVGID_3_" gradientUnits="userSpaceOnUse" x1="-279.1058" y1="596.486" x2="-278.1061" y2="596.486" gradientTransform="matrix(148.1036 0 0 -148.1036 41713.6523 88434.1641)">
		<stop  offset="0" style="stop-color:#D7DF23"/>
		<stop  offset="0.3558" style="stop-color:#D7DF23"/>
		<stop  offset="0.7891" style="stop-color:#8DC63F"/>
		<stop  offset="1" style="stop-color:#8DC63F"/>
	</linearGradient>
	<rect x="376.43" y="30.98" class="st1" width="149.21" height="122.9"/>
</g>
<g>
	<defs>
		<path id="SVGID_4_" d="M505.78,98.01c1.67-1.39,2.69-3.4,2.84-5.57l4.21-62.01l78.05,107.43l-132.8,0.04L505.78,98.01z
			 M504.16,0.31c-3.22,0.93-5.52,3.77-5.74,7.12l-5.47,80.54L431,139.75c-2.5,2.09-3.47,5.48-2.47,8.58
			c0.02,0.07,0.05,0.16,0.09,0.25c1.15,3.16,4.14,5.25,7.49,5.26l170.41-0.03c3-0.01,5.74-1.69,7.1-4.35
			c1.35-2.68,1.09-5.92-0.65-8.3L512.82,3.29c-1.52-2.1-3.94-3.29-6.45-3.29C505.63,0,504.89,0.1,504.16,0.31"/>
	</defs>
	<clipPath id="SVGID_5_">
		<use xlink:href="#SVGID_4_"  style="overflow:visible;"/>
	</clipPath>
	
		<linearGradient id="SVGID_6_" gradientUnits="userSpaceOnUse" x1="-279.1065" y1="596.4767" x2="-278.1068" y2="596.4767" gradientTransform="matrix(185.9453 8.731 -8.731 185.9453 57538.043 -108402.4453)">
		<stop  offset="0" style="stop-color:#D7DF23"/>
		<stop  offset="0.3058" style="stop-color:#D7DF23"/>
		<stop  offset="0.7891" style="stop-color:#8DC63F"/>
		<stop  offset="1" style="stop-color:#8DC63F"/>
	</linearGradient>
	<polygon class="st2" points="420.32,153.5 614.57,162.62 622.18,0.34 427.94,-8.78 	"/>
</g>
<g>
	<path class="st3" d="M362.46,313.16l-5.73,14.64h-1.89l-5.73-14.64v14.64h-4.33v-20.34h6.07l4.94,12.69l4.94-12.69h6.1v20.34h-4.36
		V313.16z"/>
	<path class="st3" d="M383.81,307.12c6.16,0,10.64,4.39,10.64,10.52s-4.48,10.52-10.64,10.52c-6.13,0-10.62-4.39-10.62-10.52
		S377.68,307.12,383.81,307.12z M383.81,310.97c-3.75,0-6.16,2.87-6.16,6.68c0,3.78,2.41,6.68,6.16,6.68c3.75,0,6.19-2.9,6.19-6.68
		C390,313.83,387.56,310.97,383.81,310.97z"/>
	<path class="st3" d="M405.16,314.14v13.67h-4.33v-20.34h4.45l9.43,13.18v-13.18h4.33v20.34h-4.18L405.16,314.14z"/>
	<path class="st3" d="M426.38,307.46h14.4v3.72h-10.07v4.42h9.85v3.72h-9.85v4.73h10.07v3.75h-14.4V307.46z"/>
	<path class="st3" d="M453.16,319.47l-7.84-12.02h4.94l5.06,8.17l5-8.17h4.94l-7.78,12.02v8.33h-4.33V319.47z"/>
	<path class="st3" d="M481.61,307.46h14.4v3.72h-10.07v4.42h9.85v3.72h-9.85v4.73h10.07v3.75h-14.4V307.46z"/>
	<path class="st3" d="M500.55,307.46h4.94l5.64,15.65l5.61-15.65h4.94l-7.84,20.34h-5.43L500.55,307.46z"/>
	<path class="st3" d="M535.93,307.12c6.16,0,10.65,4.39,10.65,10.52s-4.48,10.52-10.65,10.52c-6.13,0-10.61-4.39-10.61-10.52
		S529.8,307.12,535.93,307.12z M535.93,310.97c-3.75,0-6.16,2.87-6.16,6.68c0,3.78,2.41,6.68,6.16,6.68c3.75,0,6.19-2.9,6.19-6.68
		C542.12,313.83,539.68,310.97,535.93,310.97z"/>
	<path class="st3" d="M552.94,307.46h4.33v16.53h8.6v3.81h-12.93V307.46z"/>
	<path class="st3" d="M567.31,307.46h4.94l5.64,15.65l5.61-15.65h4.94l-7.84,20.34h-5.43L567.31,307.46z"/>
	<path class="st3" d="M593.66,307.46h14.4v3.72h-10.07v4.42h9.85v3.72h-9.85v4.73h10.07v3.75h-14.4V307.46z"/>
	<path class="st3" d="M614.76,307.46h8.02c6.38,0,10.8,4.06,10.8,10.19s-4.42,10.16-10.8,10.16h-8.02V307.46z M622.78,323.99
		c4.03,0,6.38-2.9,6.38-6.34c0-3.6-2.2-6.38-6.38-6.38h-3.69v12.72H622.78z"/>
</g>
</svg>
